<svg width="44" height="44" viewBox="0 0 44 44" fill="none" xmlns="http://www.w3.org/2000/svg">
<path d="M27.8007 34.8331H11" stroke="black" stroke-width="1.7" stroke-linecap="round" stroke-linejoin="round"/>
<path d="M32.0832 31.1667C33.6211 31.1729 34.9931 32.1344 35.5238 33.5778C36.0546 35.0213 35.6322 36.6426 34.4646 37.6436C33.2971 38.6446 31.6303 38.8144 30.2848 38.0695C29.0993 37.4318 28.3759 36.1787 28.4167 34.8331V34.8331C28.4167 32.8082 30.0582 31.1667 32.0832 31.1667V31.1667" stroke="black" stroke-width="1.7" stroke-linecap="round" stroke-linejoin="round"/>
<path d="M7.33316 31.1667C8.87108 31.1729 10.2431 32.1344 10.7738 33.5778C11.3046 35.0213 10.8822 36.6426 9.71464 37.6436C8.54708 38.6446 6.88032 38.8144 5.53484 38.0695C4.34925 37.4318 3.62595 36.1787 3.66667 34.8331V34.8331C3.66668 32.8082 5.30822 31.1667 7.33316 31.1667V31.1667" stroke="black" stroke-width="1.7" stroke-linecap="round" stroke-linejoin="round"/>
<path d="M35.7502 34.8331H37.5835C39.1023 34.8331 40.3335 33.6019 40.3335 32.0831V26.8058C40.3335 26.0764 40.0438 25.3769 39.528 24.8612L36.6668 22L33.8359 13.5072C33.3368 12.0099 31.9356 11 30.3574 11H7.3335" stroke="black" stroke-width="1.7" stroke-linecap="round" stroke-linejoin="round"/>
<path d="M36.6668 22H28.773C26.9806 22 25.4509 20.7041 25.1562 18.9361L23.8335 11" stroke="black" stroke-width="1.7" stroke-linecap="round" stroke-linejoin="round"/>
<path d="M13.75 22.9167H19.25" stroke="black" stroke-width="1.7" stroke-linecap="round" stroke-linejoin="round"/>
<path d="M16.5002 25.6667V20.1667" stroke="black" stroke-width="1.7" stroke-linecap="round" stroke-linejoin="round"/>
<path d="M3.6665 23.8333H7.33317" stroke="black" stroke-width="1.7" stroke-linecap="round" stroke-linejoin="round"/>
<path d="M5.41992 18.3333H9.16691" stroke="black" stroke-width="1.7" stroke-linecap="round" stroke-linejoin="round"/>
<path d="M27.4998 11V8.24999C27.4998 7.23747 26.679 6.41666 25.6665 6.41666H21.9998C20.9873 6.41666 20.1665 7.23747 20.1665 8.24999V11" stroke="black" stroke-width="1.7" stroke-linecap="round" stroke-linejoin="round"/>
</svg>
