<svg width="45" height="44" viewBox="0 0 45 44" fill="none" xmlns="http://www.w3.org/2000/svg">
<path fill-rule="evenodd" clip-rule="evenodd" d="M18.8318 3.65906H26.1682C28.194 3.65906 29.8364 5.30136 29.8364 7.32725V14.6636C29.8364 18.7154 26.5517 22 22.5 22V22C18.4482 22 15.1636 18.7154 15.1636 14.6636V7.32725C15.1636 5.30136 16.8059 3.65906 18.8318 3.65906Z" stroke="black" stroke-width="1.7" stroke-linecap="round" stroke-linejoin="round"/>
<path d="M26.3534 20.9087L27.7161 26.3596" stroke="black" stroke-width="1.7" stroke-linecap="round" stroke-linejoin="round"/>
<path d="M18.6502 20.9087L17.2874 26.3596" stroke="black" stroke-width="1.7" stroke-linecap="round" stroke-linejoin="round"/>
<path d="M15.1634 25.9554V33.0047" stroke="black" stroke-width="1.7" stroke-linecap="round" stroke-linejoin="round"/>
<circle cx="15.1635" cy="35.7558" r="2.75115" stroke="black" stroke-width="1.7" stroke-linecap="round" stroke-linejoin="round"/>
<path d="M29.8362 25.9554V33.0047" stroke="black" stroke-width="1.7" stroke-linecap="round" stroke-linejoin="round"/>
<path d="M26.677 38.5069C26.3483 37.9513 26.1727 37.3184 26.168 36.6728V36.6728C26.168 34.6469 27.8103 33.0046 29.8362 33.0046V33.0046C31.8621 33.0046 33.5044 34.6469 33.5044 36.6728V36.6728C33.4997 37.3184 33.324 37.9513 32.9953 38.5069" stroke="black" stroke-width="1.7" stroke-linecap="round" stroke-linejoin="round"/>
<path d="M29.8364 10.9954H15.1636" stroke="black" stroke-width="1.7" stroke-linecap="round" stroke-linejoin="round"/>
<path d="M5.99292 34.8387V32.2999C5.99292 29.6769 7.84439 27.4186 10.4165 26.9044L15.6366 25.8608C16.0679 25.7745 16.5158 25.8629 16.882 26.1065V26.1065C20.2836 28.3754 24.716 28.3754 28.1176 26.1065V26.1065C28.4838 25.8629 28.9317 25.7745 29.363 25.8608L34.5831 26.9044C37.1552 27.4186 39.0067 29.6769 39.0067 32.2999V34.8387" stroke="black" stroke-width="1.7" stroke-linecap="round" stroke-linejoin="round"/>
</svg>
