<svg width="45" height="44" viewBox="0 0 45 44" fill="none" xmlns="http://www.w3.org/2000/svg">
<path fill-rule="evenodd" clip-rule="evenodd" d="M37.1726 31.1704H30.8174C30.2043 31.1703 29.6317 31.4766 29.2915 31.9866L28.5468 33.1036C28.2065 33.6136 27.6339 33.9198 27.0208 33.9198H17.9787C17.3656 33.9198 16.793 33.6136 16.4528 33.1036L15.7136 31.9866C15.3719 31.4744 14.796 31.1679 14.1803 31.1704H7.82702C6.81407 31.1704 5.99292 31.9916 5.99292 33.0045V34.8386C5.99292 36.8645 7.63523 38.5068 9.66111 38.5068H35.3385C37.3644 38.5068 39.0067 36.8645 39.0067 34.8386V33.0045C39.0067 31.9916 38.1855 31.1704 37.1726 31.1704Z" stroke="black" stroke-width="1.7" stroke-linecap="round" stroke-linejoin="round"/>
<path d="M37.1727 31.1705V23.8341" stroke="black" stroke-width="1.7" stroke-linecap="round" stroke-linejoin="round"/>
<path d="M7.82715 31.1705V12.8296C7.82715 10.8037 9.46946 9.16138 11.4953 9.16138H18.8317" stroke="black" stroke-width="1.7" stroke-linecap="round" stroke-linejoin="round"/>
<path fill-rule="evenodd" clip-rule="evenodd" d="M39.0068 10.4452C39.0068 9.63481 38.3498 8.97788 37.5395 8.97788H34.6049V6.04333C34.6049 5.23297 33.948 4.57605 33.1377 4.57605H30.2031C29.3927 4.57605 28.7358 5.23297 28.7358 6.04333V8.97788H25.8013C24.9909 8.97788 24.334 9.63481 24.334 10.4452V13.3797C24.334 14.1901 24.9909 14.847 25.8013 14.847H28.7358V17.7816C28.7358 18.5919 29.3927 19.2488 30.2031 19.2488H33.1377C33.948 19.2488 34.6049 18.5919 34.6049 17.7816V14.847H37.5395C38.3498 14.847 39.0068 14.1901 39.0068 13.3797V10.4452Z" stroke="black" stroke-width="1.7" stroke-linecap="round" stroke-linejoin="round"/>
</svg>
