<svg width="45" height="44" viewBox="0 0 45 44" fill="none" xmlns="http://www.w3.org/2000/svg">
<path d="M34.1672 10.3327C40.6109 16.7764 40.6109 27.2236 34.1672 33.6672C27.7236 40.1109 17.2764 40.1109 10.8327 33.6672C4.38909 27.2236 4.38909 16.7764 10.8327 10.3327C17.2764 3.88909 27.7236 3.88909 34.1672 10.3327" stroke="black" stroke-width="1.7" stroke-linecap="round" stroke-linejoin="round"/>
<path d="M25.8055 27.0343L21.6731 31.1666L19.1926 28.6861" stroke="black" stroke-width="1.7" stroke-linecap="round" stroke-linejoin="round"/>
<path d="M16.9998 17.1674H15.1665C13.6485 17.1674 12.4165 18.3994 12.4165 19.9174V34.8334" stroke="black" stroke-width="1.7" stroke-linecap="round" stroke-linejoin="round"/>
<path d="M28 17.1674H29.8333C31.3513 17.1674 32.5833 18.3994 32.5833 19.9174V34.8334" stroke="black" stroke-width="1.7" stroke-linecap="round" stroke-linejoin="round"/>
<path fill-rule="evenodd" clip-rule="evenodd" d="M25.9925 19.6661H19.0093C17.8983 19.6661 17 18.7678 17 17.6586V16.6741C17 15.565 17.8983 14.6666 19.0075 14.6666H25.9907C27.1017 14.6666 28 15.565 28 16.6741V17.6568C28 18.7678 27.1017 19.6661 25.9925 19.6661V19.6661Z" stroke="black" stroke-width="1.7" stroke-linecap="round" stroke-linejoin="round"/>
</svg>
