<svg width="44" height="44" viewBox="0 0 44 44" fill="none" xmlns="http://www.w3.org/2000/svg">
<path d="M29.8242 5.00908C31.6141 6.79899 31.6141 9.70099 29.8242 11.4909C28.0343 13.2808 25.1323 13.2808 23.3424 11.4909C21.5525 9.70099 21.5525 6.79899 23.3424 5.00908C25.1323 3.21918 28.0343 3.21918 29.8242 5.00908" stroke="black" stroke-width="1.7" stroke-linecap="round" stroke-linejoin="round"/>
<path d="M16.1853 13.1479C19.0491 16.0117 19.0491 20.6549 16.1853 23.5188C13.3214 26.3826 8.67822 26.3826 5.81439 23.5188C2.95054 20.6549 2.95054 16.0117 5.81439 13.1479C8.67824 10.284 13.3215 10.284 16.1853 13.1479" stroke="black" stroke-width="1.7" stroke-linecap="round" stroke-linejoin="round"/>
<path d="M18.3332 18.3333H3.6665" stroke="black" stroke-width="1.7" stroke-linecap="round" stroke-linejoin="round"/>
<path fill-rule="evenodd" clip-rule="evenodd" d="M38.7104 27.7842L29.6171 36.8775C27.4538 39.0408 23.9484 39.0408 21.7851 36.8775V36.8775C19.6218 34.7142 19.6218 31.2088 21.7851 29.0455L30.8784 19.9522C33.0418 17.7888 36.5471 17.7888 38.7104 19.9522V19.9522C40.8738 22.1155 40.8738 25.6227 38.7104 27.7842Z" stroke="black" stroke-width="1.7" stroke-linecap="round" stroke-linejoin="round"/>
<path d="M26.3633 24.53L34.1366 32.3033" stroke="black" stroke-width="1.7" stroke-linecap="round" stroke-linejoin="round"/>
</svg>
