<svg width="248" height="120" viewBox="0 0 248 120" fill="none" xmlns="http://www.w3.org/2000/svg">
<path d="M73.08 89.32H62.4V106H47.88V89.32H3.36V75.88L43.08 18.28H62.4V75.88H73.08V89.32ZM19.68 75.88H47.88V34.84L19.68 75.88Z" fill="#D3E682"/>
<path fill-rule="evenodd" clip-rule="evenodd" d="M124 20C146.093 20 164 37.9114 164 60C164 82.0886 146.093 100 124 100C101.911 100 84 82.0886 84 60C84 37.9114 101.911 20 124 20Z" fill="#D3E682"/>
<path d="M123.975 43.5853V62.6945" stroke="black" stroke-width="5" stroke-linecap="round" stroke-linejoin="round"/>
<path d="M123.976 76.4147H124.02" stroke="black" stroke-width="5" stroke-linecap="round" stroke-linejoin="round"/>
<path d="M174.92 89.32H185.6V106H200.12V89.32H244.64V75.88L204.92 18.28H185.6V75.88H174.92V89.32ZM228.32 75.88H200.12V34.84L228.32 75.88Z" fill="#D3E682"/>
</svg>
