<svg width="48" height="48" viewBox="0 0 48 48" fill="none" xmlns="http://www.w3.org/2000/svg">
<path d="M31.756 28.7214C31.2627 29.2396 30.4623 29.2399 29.9687 28.7222L14.9473 12.9628C14.4538 12.445 14.4537 11.6053 14.9471 11.0874L22.0373 3.64417C26.6673 -1.21472 34.2087 -1.21472 38.8438 3.64417C41.0855 5.99935 42.3213 9.12898 42.3213 12.4602C42.3213 15.7914 41.0855 18.9211 38.8438 21.2763L31.756 28.7214Z" fill="#D3E682"/>
<path d="M13.4709 17.0395L13.4692 17.0367L13.4655 17.0339L12.2655 15.7745C11.772 15.2566 10.9717 15.2567 10.4783 15.7747L3.45891 23.1436C-1.15339 28.0078 -1.15339 35.9273 3.46144 40.7968C5.77893 43.2263 8.82178 44.441 11.8621 44.441C14.905 44.441 17.9478 43.2263 20.2629 40.7968L27.2908 33.4119C27.7839 32.894 27.7834 32.0545 27.29 31.5368L13.4709 17.0395Z" fill="#D3E682"/>
<path d="M43.3177 23.8506C42.8019 23.4011 42.0442 23.5334 41.5718 24.0328L41.5301 24.0769L25.0623 41.3843C24.6317 41.8367 24.5652 42.552 24.9511 43.0467C27.3417 46.1116 30.9833 48 34.9845 48C42.162 48 48 41.8733 48 34.3675C48 30.1709 46.2028 26.3647 43.3177 23.8506Z" fill="#D3E682"/>
</svg>
