<svg width="189" height="48" viewBox="0 0 189 48" fill="none" xmlns="http://www.w3.org/2000/svg">
<path d="M31.756 28.7214C31.2627 29.2396 30.4623 29.2399 29.9687 28.7222L14.9473 12.9628C14.4538 12.445 14.4537 11.6053 14.9471 11.0874L22.0373 3.64417C26.6673 -1.21472 34.2087 -1.21472 38.8438 3.64417C41.0855 5.99935 42.3213 9.12898 42.3213 12.4602C42.3213 15.7914 41.0855 18.9211 38.8438 21.2763L31.756 28.7214Z" fill="#D3E682"/>
<path d="M13.4709 17.0395L13.4692 17.0367L13.4655 17.0339L12.2655 15.7745C11.772 15.2566 10.9717 15.2567 10.4783 15.7747L3.45891 23.1436C-1.15339 28.0078 -1.15339 35.9273 3.46144 40.7968C5.77893 43.2263 8.82178 44.441 11.8621 44.441C14.905 44.441 17.9478 43.2263 20.2629 40.7968L27.2908 33.4119C27.7839 32.894 27.7834 32.0545 27.29 31.5368L13.4709 17.0395Z" fill="#D3E682"/>
<path d="M43.3177 23.8506C42.8019 23.4011 42.0442 23.5334 41.5718 24.0328L41.5301 24.0769L25.0623 41.3843C24.6317 41.8367 24.5652 42.552 24.9511 43.0467C27.3417 46.1116 30.9833 48 34.9845 48C42.162 48 48 41.8733 48 34.3675C48 30.1709 46.2028 26.3647 43.3177 23.8506Z" fill="#D3E682"/>
<path d="M71.26 37.408C64.018 37.408 59.326 32.376 59.326 24.59C59.326 16.872 64.188 11.738 71.464 11.738C77.346 11.738 81.732 15.172 82.582 20.51H77.992C77.142 17.62 74.66 15.92 71.362 15.92C66.772 15.92 63.882 19.252 63.882 24.556C63.882 29.826 66.806 33.226 71.362 33.226C74.728 33.226 77.312 31.458 78.128 28.704H82.65C81.698 33.94 77.142 37.408 71.26 37.408ZM90.6068 37.442C87.0368 37.442 84.8608 35.368 84.8608 32.206C84.8608 29.112 87.1048 27.174 91.0828 26.868L96.1148 26.494V26.12C96.1148 23.842 94.7548 22.924 92.6468 22.924C90.1988 22.924 88.8388 23.944 88.8388 25.712H85.3028C85.3028 22.074 88.2948 19.694 92.8508 19.694C97.3728 19.694 100.161 22.142 100.161 26.8V37H96.5228L96.2168 34.518C95.5028 36.252 93.2248 37.442 90.6068 37.442ZM91.9668 34.314C94.5168 34.314 96.1488 32.784 96.1488 30.2V29.316L92.6468 29.588C90.0628 29.826 89.0768 30.676 89.0768 32.036C89.0768 33.566 90.0968 34.314 91.9668 34.314ZM114.776 20.136V23.978H113.246C110.254 23.978 108.384 25.576 108.384 28.84V37H104.236V20.238H108.146L108.384 22.686C109.098 21.02 110.696 19.898 112.94 19.898C113.518 19.898 114.096 19.966 114.776 20.136ZM124.533 37.442C119.535 37.442 116.033 33.804 116.033 28.602C116.033 23.332 119.467 19.694 124.397 19.694C129.429 19.694 132.625 23.06 132.625 28.296V29.554L119.977 29.588C120.283 32.546 121.847 34.042 124.601 34.042C126.879 34.042 128.375 33.158 128.851 31.56H132.693C131.979 35.232 128.919 37.442 124.533 37.442ZM124.431 23.094C121.983 23.094 120.487 24.42 120.079 26.936H128.511C128.511 24.624 126.913 23.094 124.431 23.094ZM146.383 28.432H140.909V37H136.557V12.146H146.383C151.381 12.146 154.611 15.41 154.611 20.272C154.611 25.066 151.347 28.432 146.383 28.432ZM145.533 16.022H140.909V24.556H145.465C148.457 24.556 150.055 22.958 150.055 20.238C150.055 17.518 148.423 16.022 145.533 16.022ZM168.2 20.136V23.978H166.67C163.678 23.978 161.808 25.576 161.808 28.84V37H157.66V20.238H161.57L161.808 22.686C162.522 21.02 164.12 19.898 166.364 19.898C166.942 19.898 167.52 19.966 168.2 20.136ZM169.457 28.568C169.457 23.332 173.231 19.728 178.433 19.728C183.635 19.728 187.409 23.332 187.409 28.568C187.409 33.804 183.635 37.408 178.433 37.408C173.231 37.408 169.457 33.804 169.457 28.568ZM173.605 28.568C173.605 31.628 175.577 33.702 178.433 33.702C181.289 33.702 183.261 31.628 183.261 28.568C183.261 25.508 181.289 23.434 178.433 23.434C175.577 23.434 173.605 25.508 173.605 28.568Z" fill="white"/>
</svg>
