<svg width="44" height="44" viewBox="0 0 44 44" fill="none" xmlns="http://www.w3.org/2000/svg">
<path fill-rule="evenodd" clip-rule="evenodd" d="M17.7893 7.50749L6.4703 13.7958C4.09063 15.1177 4.09063 18.5387 6.4703 19.8605L17.7893 26.1488C20.4073 27.6027 23.5918 27.6027 26.2116 26.1488L37.5306 19.8605C39.9103 18.5387 39.9103 15.1177 37.5306 13.7958L26.2116 7.50749C23.5918 6.05366 20.4091 6.05366 17.7893 7.50749Z" stroke="black" stroke-width="2" stroke-linecap="round" stroke-linejoin="round"/>
<path d="M10.9844 22.3667V29.5607C10.9844 31.3005 11.8552 32.923 13.3017 33.8855L16.2479 35.8454C19.733 38.1627 24.2687 38.1627 27.752 35.8454L30.6982 33.8855C32.1465 32.923 33.0155 31.2987 33.0155 29.5607V22.3667" stroke="black" stroke-width="2" stroke-linecap="round" stroke-linejoin="round"/>
</svg>
