<svg width="131" height="28" viewBox="0 0 131 28" fill="none" xmlns="http://www.w3.org/2000/svg">
<path d="M18.5243 16.7541C18.2366 17.0564 17.7697 17.0566 17.4817 16.7546L8.71928 7.56162C8.43137 7.25958 8.43131 6.76978 8.71913 6.46763L12.8551 2.12576C15.5559 -0.708588 19.9551 -0.708588 22.6589 2.12576C23.9665 3.49962 24.6874 5.32524 24.6874 7.26844C24.6874 9.21164 23.9665 11.0373 22.6589 12.4112L18.5243 16.7541Z" fill="#087A6A"/>
<path d="M7.85803 9.93973L7.85701 9.93809L7.85489 9.93645L7.15488 9.20182C6.86698 8.89968 6.40019 8.89973 6.11234 9.2019L2.0177 13.5004C-0.672811 16.3379 -0.672811 20.9576 2.01917 23.7981C3.37104 25.2153 5.14604 25.9239 6.91958 25.9239C8.69458 25.9239 10.4696 25.2153 11.82 23.7981L15.9196 19.4903C16.2073 19.1881 16.207 18.6985 15.9192 18.3965L7.85803 9.93973Z" fill="#087A6A"/>
<path d="M25.2687 13.9129C24.9678 13.6506 24.5258 13.7278 24.2502 14.0192L24.2259 14.0448L14.6197 24.1408C14.3685 24.4048 14.3297 24.822 14.5548 25.1106C15.9493 26.8984 18.0736 28 20.4076 28C24.5945 28 28 24.4261 28 20.0477C28 17.5997 26.9517 15.3794 25.2687 13.9129Z" fill="#087A6A"/>
<path d="M47.36 23.288C42.248 23.288 38.936 19.736 38.936 14.24C38.936 8.792 42.368 5.168 47.504 5.168C51.656 5.168 54.752 7.592 55.352 11.36H52.112C51.512 9.32 49.76 8.12 47.432 8.12C44.192 8.12 42.152 10.472 42.152 14.216C42.152 17.936 44.216 20.336 47.432 20.336C49.808 20.336 51.632 19.088 52.208 17.144H55.4C54.728 20.84 51.512 23.288 47.36 23.288ZM61.0166 23.312C58.4966 23.312 56.9606 21.848 56.9606 19.616C56.9606 17.432 58.5446 16.064 61.3526 15.848L64.9046 15.584V15.32C64.9046 13.712 63.9446 13.064 62.4566 13.064C60.7286 13.064 59.7686 13.784 59.7686 15.032H57.2726C57.2726 12.464 59.3846 10.784 62.6006 10.784C65.7926 10.784 67.7606 12.512 67.7606 15.8V23H65.1926L64.9766 21.248C64.4726 22.472 62.8646 23.312 61.0166 23.312ZM61.9766 21.104C63.7766 21.104 64.9286 20.024 64.9286 18.2V17.576L62.4566 17.768C60.6326 17.936 59.9366 18.536 59.9366 19.496C59.9366 20.576 60.6566 21.104 61.9766 21.104ZM78.077 11.096V13.808H76.997C74.885 13.808 73.565 14.936 73.565 17.24V23H70.637V11.168H73.397L73.565 12.896C74.069 11.72 75.197 10.928 76.781 10.928C77.189 10.928 77.597 10.976 78.077 11.096ZM84.9644 23.312C81.4364 23.312 78.9644 20.744 78.9644 17.072C78.9644 13.352 81.3884 10.784 84.8684 10.784C88.4204 10.784 90.6764 13.16 90.6764 16.856V17.744L81.7484 17.768C81.9644 19.856 83.0684 20.912 85.0124 20.912C86.6204 20.912 87.6764 20.288 88.0124 19.16H90.7244C90.2204 21.752 88.0604 23.312 84.9644 23.312ZM84.8924 13.184C83.1644 13.184 82.1084 14.12 81.8204 15.896H87.7724C87.7724 14.264 86.6444 13.184 84.8924 13.184ZM100.388 16.952H96.5238V23H93.4518V5.456H100.388C103.916 5.456 106.196 7.76 106.196 11.192C106.196 14.576 103.892 16.952 100.388 16.952ZM99.7878 8.192H96.5238V14.216H99.7398C101.852 14.216 102.98 13.088 102.98 11.168C102.98 9.248 101.828 8.192 99.7878 8.192ZM115.788 11.096V13.808H114.708C112.596 13.808 111.276 14.936 111.276 17.24V23H108.348V11.168H111.108L111.276 12.896C111.78 11.72 112.908 10.928 114.492 10.928C114.9 10.928 115.308 10.976 115.788 11.096ZM116.675 17.048C116.675 13.352 119.339 10.808 123.011 10.808C126.683 10.808 129.347 13.352 129.347 17.048C129.347 20.744 126.683 23.288 123.011 23.288C119.339 23.288 116.675 20.744 116.675 17.048ZM119.603 17.048C119.603 19.208 120.995 20.672 123.011 20.672C125.027 20.672 126.419 19.208 126.419 17.048C126.419 14.888 125.027 13.424 123.011 13.424C120.995 13.424 119.603 14.888 119.603 17.048Z" fill="black"/>
</svg>
